<?xml version="1.0" encoding="UTF-8"?><svg id="Layer_2" xmlns="http://www.w3.org/2000/svg" viewBox="0 0 722.48 181.1"><defs><style>.cls-1{fill:#fff;stroke-width:0px;}</style></defs><g id="Layer_1-2"><path class="cls-1" d="M193.3,104.3c-.3-.3-.1-.9.4-.9h2.1c17.1-1.7,31.4-12.8,31.4-32.4,0-22.6-18.2-33-39.1-33h-97.7c-1.3,0-2.4,1.1-2.4,2.4v100.2c0,1.3,1.1,2.4,2.4,2.4h31.2c1.3,0,2.4-1.1,2.4-2.4v-32c0-1.3,1.1-2.4,2.4-2.4h20.3c2.8,0,5.5,1.2,7.4,3.3l28.9,32.6c.6.3,1.2.5,1.8.8h41.2c2.1,0,3.2-2.5,1.7-4l-34.4-34.6h0ZM180.3,82.8h-54c-1.3,0-2.4-1.1-2.4-2.4v-15.2c0-1.3,1.1-2.4,2.4-2.4h53.2c7.6,0,12.6,3.7,12.6,9.7,0,6.8-4.6,10.3-11.8,10.3Z"/><path class="cls-1" d="M587.7,38.1h-31.2c-1.3,0-2.4,1.1-2.4,2.4v66.5c0,1.3,1.1,2.4,2.4,2.4h31.2c1.3,0,2.4-1.1,2.4-2.4V40.5c-.1-1.3-1.1-2.4-2.4-2.4Z"/><path class="cls-1" d="M587.7,123.5h-31.2c-1.3,0-2.4,1.1-2.4,2.4v14.8c0,1.3,1.1,2.4,2.4,2.4h31.2c1.3,0,2.4-1.1,2.4-2.4v-14.8c-.1-1.3-1.1-2.4-2.4-2.4Z"/><path class="cls-1" d="M716.1,139.9l-40.1-53.1c-.9-1.2-.8-2.8.2-3.9l37.9-41.6c1.1-1.2.2-3.1-1.4-3.1h-32.8c-.9,0-1.7.4-2.3,1l-36.6,40.2h0c-.1.1-.3.2-.5.2h-1.3c-.3,0-.6-.3-.6-.6v-38.7c0-1.2-1-2.2-2.2-2.2h-30c-1.2,0-2.2,1-2.2,2.2v100.4c0,1.1.9,2,2,2h30.3c1.1,0,2-.9,2-2v-18.7c0-.8.3-1.5.8-2.1l13.3-14.2s.1-.2.4-.2h1.8c.2,0,.4.2.4.2l26.8,35.8c.6.8,1.5,1.2,2.5,1.2h30.1c1.6,0,2.4-1.7,1.5-2.8h0Z"/><path class="cls-1" d="M275.7,62.1h30.5c1.3,0,2.4-1.1,2.4-2.4v-19.2c0-1.3-1.1-2.4-2.4-2.4h-63.1c-1.3,0-2.4,1.1-2.4,2.4v100.2c0,1.3,1.1,2.4,2.4,2.4h63.1c1.3,0,2.4-1.1,2.4-2.4v-19.2c0-1.3-1.1-2.4-2.4-2.4h-30.7c-1.3,0-2.4-1.1-2.4-2.4v-12.5c0-1.4,1.2-2.6,2.6-2.6h30.5c1.3,0,2.4-1.1,2.4-2.4v-18.8c0-1.3-1.1-2.4-2.4-2.4h-30.5c-1.4,0-2.6-1.2-2.6-2.6v-10.8c0-1.4,1.2-2.5,2.6-2.5Z"/><path class="cls-1" d="M357.7,62.1h30.5c1.3,0,2.4-1.1,2.4-2.4v-19.2c0-1.3-1.1-2.4-2.4-2.4h-63.1c-1.3,0-2.4,1.1-2.4,2.4v100.2c0,1.3,1.1,2.4,2.4,2.4h63.1c1.3,0,2.4-1.1,2.4-2.4v-19.2c0-1.3-1.1-2.4-2.4-2.4h-30.7c-1.3,0-2.4-1.1-2.4-2.4v-12.5c0-1.4,1.2-2.6,2.6-2.6h30.5c1.3,0,2.4-1.1,2.4-2.4v-18.8c0-1.3-1.1-2.4-2.4-2.4h-30.5c-1.4,0-2.6-1.2-2.6-2.6v-10.8c0-1.4,1.2-2.5,2.6-2.5Z"/><path class="cls-1" d="M41,62.1h30.5c1.3,0,2.4-1.1,2.4-2.4v-19.2c0-1.3-1.1-2.4-2.4-2.4H8.4c-1.3,0-2.4,1.1-2.4,2.4v100.2c0,1.3,1.1,2.4,2.4,2.4h27.6c1.3,0,2.4-1.1,2.4-2.4v-36.4c0-1.4,1.2-2.6,2.6-2.6h30.5c1.3,0,2.4-1.1,2.4-2.4v-18.8c0-1.3-1.1-2.4-2.4-2.4h-30.5c-1.4,0-2.6-1.2-2.6-2.6v-10.8c0-1.5,1.1-2.6,2.6-2.6Z"/><path class="cls-1" d="M501.6,38.1h-94.5c-1.3,0-2.4,1.1-2.4,2.4v100.2c0,1.3,1.1,2.4,2.4,2.4h31.2c1.3,0,2.4-1.1,2.4-2.4v-33.1c0-.7.5-1.2,1.2-1.2h59.8c24,0,42.2-12.5,42.2-34.6s-18.2-33.7-42.3-33.7ZM497.1,82.8h-54c-1.3,0-2.4-1.1-2.4-2.4v-15.2c0-1.3,1.1-2.4,2.4-2.4h53.2c7.6,0,12.6,3.7,12.6,9.7,0,6.8-4.7,10.3-11.8,10.3h0Z"/></g></svg>